<svg t="1685100687644" class="icon" viewBox="0 0 1024 1024" version="1.1" xmlns="http://www.w3.org/2000/svg" p-id="9430" width="16" height="16"><path d="M809.2 128.3H217.1c-48.4 0-87.8 40.8-87.8 91v585.8c0 50.2 39.4 91 87.8 91h592.1c48.4 0 87.8-40.8 87.8-91V219.3c0-50.1-39.4-91-87.8-91z m-592.1 69.8h592.1c9.8 0 17.8 9.5 17.8 21.2v106.4c0 13.9-11.3 25.1-25.2 25.1H224.5c-13.9 0-25.2-11.2-25.2-25.1V219.3c0.1-11.7 8-21.2 17.8-21.2z m592.1 628.3H217.1c-9.8 0-17.8-9.5-17.8-21.2V445.8c0-13.9 11.3-25.1 25.2-25.1h577.3c13.9 0 25.2 11.2 25.2 25.1v359.4c0 11.6-8 21.2-17.8 21.2z" p-id="9431"></path><path d="M314.9 606.8c-42.3 0-76.7-34.4-76.7-76.7 0-42.3 34.4-76.7 76.7-76.7 42.3 0 76.7 34.4 76.7 76.7 0 42.3-34.4 76.7-76.7 76.7z m0-108.4c-17.5 0-31.7 14.2-31.7 31.7s14.2 31.7 31.7 31.7 31.7-14.2 31.7-31.7-14.3-31.7-31.7-31.7zM513.2 606.8c-42.3 0-76.7-34.4-76.7-76.7 0-42.3 34.4-76.7 76.7-76.7 42.3 0 76.7 34.4 76.7 76.7 0 42.3-34.4 76.7-76.7 76.7z m0-108.4c-17.5 0-31.7 14.2-31.7 31.7s14.2 31.7 31.7 31.7 31.7-14.2 31.7-31.7-14.3-31.7-31.7-31.7zM711.5 606.8c-42.3 0-76.7-34.4-76.7-76.7 0-42.3 34.4-76.7 76.7-76.7 42.3 0 76.7 34.4 76.7 76.7-0.1 42.3-34.5 76.7-76.7 76.7z m0-108.4c-17.5 0-31.7 14.2-31.7 31.7s14.2 31.7 31.7 31.7 31.7-14.2 31.7-31.7c-0.1-17.5-14.3-31.7-31.7-31.7zM314.9 792.8c-42.3 0-76.7-34.4-76.7-76.7 0-42.3 34.4-76.7 76.7-76.7 42.3 0 76.7 34.4 76.7 76.7 0 42.3-34.4 76.7-76.7 76.7z m0-108.4c-17.5 0-31.7 14.2-31.7 31.7s14.2 31.7 31.7 31.7 31.7-14.2 31.7-31.7c0-17.4-14.3-31.7-31.7-31.7zM513.2 792.8c-42.3 0-76.7-34.4-76.7-76.7 0-42.3 34.4-76.7 76.7-76.7 42.3 0 76.7 34.4 76.7 76.7 0 42.3-34.4 76.7-76.7 76.7z m0-108.4c-17.5 0-31.7 14.2-31.7 31.7s14.2 31.7 31.7 31.7 31.7-14.2 31.7-31.7c0-17.4-14.3-31.7-31.7-31.7zM711.5 792.8c-42.3 0-76.7-34.4-76.7-76.7 0-42.3 34.4-76.7 76.7-76.7 42.3 0 76.7 34.4 76.7 76.7-0.1 42.3-34.5 76.7-76.7 76.7z m0-108.4c-17.5 0-31.7 14.2-31.7 31.7s14.2 31.7 31.7 31.7 31.7-14.2 31.7-31.7c-0.1-17.4-14.3-31.7-31.7-31.7z" p-id="9432"></path></svg>