<svg t="1685090673112" class="icon" viewBox="-250 -250 1600 1562" version="1.1" xmlns="http://www.w3.org/2000/svg" p-id="8030" id="mx_n_1685090673112" width="16" height="16"><path d="M936.659302 0H101.562921C45.568 0 0 45.83619 0 102.172444v681.12254c0 56.336254 45.559873 102.172444 101.562921 102.172445h236.982857v68.112254H236.999111c-18.70019 0-33.857016 15.246222-33.857016 34.052063 0 18.813968 15.156825 34.06019 33.857016 34.060191h564.256508c18.692063 0 33.848889-15.246222 33.848889-34.052064 0-18.813968-15.156825-34.052063-33.857016-34.052063H699.676444v-68.120381h236.982858c56.003048 0 101.571048-45.83619 101.571047-102.172445v-681.12254C1038.222222 45.83619 992.662349 0 936.659302 0zM631.962413 953.579683H406.267937v-68.104127h225.702603v68.104127z m338.553904-170.284699c0 18.78146-15.189333 34.06019-33.857015 34.060191H101.562921c-18.667683 0-33.857016-15.27873-33.857016-34.052064v-34.052063H970.524444v34.052063z m0-102.164317H67.705905V102.15619c0-18.773333 15.19746-34.052063 33.857016-34.052063h835.096381c18.667683 0 33.857016 15.27873 33.857015 34.052063v578.96635z m-101.56292-136.224508h-33.857016c0-67.486476-36.807111-126.455873-91.257905-157.761016a113.347048 113.347048 0 0 0 23.543873-69.28254c0-62.594032-50.631111-113.517714-112.851301-113.517714-62.228317 0-112.851302 50.923683-112.851302 113.517714 0 26.071365 8.801524 50.09473 23.543873 69.28254-54.450794 31.31327-91.249778 90.27454-91.249778 157.761016h-33.857016c-18.692063 0-33.857016 15.246222-33.857015 34.052063 0 18.813968 15.156825 34.06019 33.857015 34.060191h428.828445c18.692063 0 33.857016-15.246222 33.857016-34.052064 0-18.813968-15.156825-34.06019-33.848889-34.06019zM654.531048 272.449016c24.892952 0 45.145397 20.374349 45.145396 45.413587 0 25.031111-20.252444 45.40546-45.145396 45.40546-24.884825 0-45.13727-20.366222-45.13727-45.40546s20.252444-45.413587 45.13727-45.413587zM541.679746 544.914286c0-62.594032 50.631111-113.525841 112.851302-113.525842 62.228317 0 112.851302 50.93181 112.851301 113.525842H541.679746zM394.979556 272.449016H169.276952c-18.692063 0-33.857016 15.246222-33.857015 34.052063 0 18.813968 15.156825 34.068317 33.857015 34.068318H394.971429c18.692063 0 33.848889-15.254349 33.848888-34.060191 0-18.813968-15.156825-34.052063-33.848888-34.052063z m0 136.232635H169.276952c-18.692063 0-33.857016 15.246222-33.857015 34.052063 0 18.813968 15.156825 34.052063 33.857015 34.052064H394.971429c18.692063 0 33.848889-15.238095 33.848888-34.052064 0-18.805841-15.156825-34.052063-33.848888-34.052063z" p-id="8031"></path></svg>