<svg t="1685090535732" class="icon" viewBox="-80 -50 1224 1224" version="1.1" xmlns="http://www.w3.org/2000/svg" p-id="2813" id="mx_n_1685090535733" width="16" height="16"><path d="M682.666667 469.333333c72.533333 0 128-55.466667 128-128 0-72.533333-55.466667-128-128-128-72.533333 0-128 55.466667-128 128C554.666667 413.866667 610.133333 469.333333 682.666667 469.333333zM341.333333 469.333333c72.533333 0 128-55.466667 128-128 0-72.533333-55.466667-128-128-128C268.8 213.333333 213.333333 268.8 213.333333 341.333333 213.333333 413.866667 268.8 469.333333 341.333333 469.333333zM341.333333 554.666667c-98.133333 0-298.666667 51.2-298.666667 149.333333L42.666667 810.666667l597.333333 0 0-106.666667C640 605.866667 439.466667 554.666667 341.333333 554.666667zM682.666667 554.666667c-12.8 0-25.6 0-42.666667 4.266667 51.2 34.133333 85.333333 85.333333 85.333333 145.066667L725.333333 810.666667l256 0 0-106.666667C981.333333 605.866667 780.8 554.666667 682.666667 554.666667z" p-id="2814"></path></svg>