<svg t="1685066017189" class="icon" viewBox="0 0 1024 1024" version="1.1" xmlns="http://www.w3.org/2000/svg" p-id="1490" width="16" height="16"><path d="M398.208 284.458667a85.333333 85.333333 0 0 0-85.333333-85.333334h-28.416a85.333333 85.333333 0 0 0-85.333334 85.333334v28.416a85.333333 85.333333 0 0 0 85.333334 85.333333h113.749333V284.458667z m85.333333 142.208c0 31.402667-25.472 56.874667-56.874666 56.874666H284.458667a170.666667 170.666667 0 0 1-170.666667-170.666666v-28.416a170.666667 170.666667 0 0 1 170.666667-170.666667h28.416a170.666667 170.666667 0 0 1 170.666666 170.666667V426.666667z m227.584 199.125333a85.333333 85.333333 0 0 0-85.333333 85.333333v28.416a85.333333 85.333333 0 0 0 85.333333 85.333334h28.416a85.333333 85.333333 0 0 0 85.333334-85.333334v-28.416a85.333333 85.333333 0 0 0-85.333334-85.333333h-28.416z m-170.666666 85.333333a170.666667 170.666667 0 0 1 170.666666-170.666666h28.416a170.666667 170.666667 0 0 1 170.666667 170.666666v28.416a170.666667 170.666667 0 0 1-170.666667 170.666667h-28.416a170.666667 170.666667 0 0 1-170.666666-170.666667v-28.416z m-142.250667-85.333333H284.458667a85.333333 85.333333 0 0 0-85.333334 85.333333v28.416a85.333333 85.333333 0 0 0 85.333334 85.333334h28.416a85.333333 85.333333 0 0 0 85.333333-85.333334v-113.749333z m28.458667-85.333333c31.402667 0 56.874667 25.472 56.874666 56.874666v142.208a170.666667 170.666667 0 0 1-170.666666 170.666667h-28.416a170.666667 170.666667 0 0 1-170.666667-170.666667v-28.416a170.666667 170.666667 0 0 1 170.666667-170.666666H426.666667z m199.125333-256a85.333333 85.333333 0 0 1 85.333333-85.333334h28.416a85.333333 85.333333 0 0 1 85.333334 85.333334v28.416a85.333333 85.333333 0 0 1-85.333334 85.333333h-113.749333V284.458667z m-85.333333 142.208c0 31.402667 25.472 56.874667 56.874666 56.874666h142.208a170.666667 170.666667 0 0 0 170.666667-170.666666v-28.416a170.666667 170.666667 0 0 0-170.666667-170.666667h-28.416a170.666667 170.666667 0 0 0-170.666666 170.666667V426.666667z" p-id="1491"></path></svg>